<?xml version="1.0" encoding="UTF-8"?>
<!DOCTYPE svg PUBLIC "-//W3C//DTD SVG 1.1//EN" "http://www.w3.org/Graphics/SVG/1.1/DTD/svg11.dtd">
<svg xmlns="http://www.w3.org/2000/svg" version="1.1" width="500px" height="500px" style="shape-rendering:geometricPrecision; text-rendering:geometricPrecision; image-rendering:optimizeQuality; fill-rule:evenodd; clip-rule:evenodd" xmlns:xlink="http://www.w3.org/1999/xlink">
<g><path style="opacity:1" fill="#bf3c53" d="M 352.5,46.5 C 351.094,46.9731 350.427,47.9731 350.5,49.5C 350.167,50.5 349.5,51.1667 348.5,51.5C 346.086,52.9108 344.419,54.9108 343.5,57.5C 343.5,57.8333 343.5,58.1667 343.5,58.5C 343.294,61.4951 343.96,64.1617 345.5,66.5C 345.42,69.7814 346.087,72.7814 347.5,75.5C 350.642,86.7056 352.975,98.2056 354.5,110C 354.435,112.591 353.935,115.091 353,117.5C 350.14,123.22 347.307,128.886 344.5,134.5C 344.167,134.5 343.833,134.5 343.5,134.5C 341.811,135.931 339.811,136.764 337.5,137C 333.204,137.374 329.037,138.207 325,139.5C 324.617,138.944 324.117,138.611 323.5,138.5C 321.769,134.038 319.769,129.705 317.5,125.5C 324.618,117.379 326.118,108.379 322,98.5C 317.047,92.2437 311.714,91.9104 306,97.5C 305.667,102.167 305.333,106.833 305,111.5C 303.644,112.38 302.144,112.714 300.5,112.5C 300.332,108.322 298.998,104.655 296.5,101.5C 274.393,108.079 255.56,102.746 240,85.5C 241.578,89.1141 244.078,92.2807 247.5,95C 256.42,101.623 266.42,105.79 277.5,107.5C 272.03,108.8 266.697,108.3 261.5,106C 249.521,100.686 240.021,92.5189 233,81.5C 229.237,82.9286 226.404,85.4286 224.5,89C 223.552,89.4828 222.552,89.6495 221.5,89.5C 217.041,80.9758 217.707,72.8091 223.5,65C 242.096,52.8701 262.096,43.7034 283.5,37.5C 285.354,30.2238 286.52,22.5571 287,14.5C 287.717,13.9558 288.217,13.2891 288.5,12.5C 298.256,4.06069 309.59,1.22735 322.5,4C 340.652,8.48419 351.652,19.8175 355.5,38C 355.727,41.3578 354.727,44.1911 352.5,46.5 Z"/></g>
<g><path style="opacity:1" fill="rgb(247 147 98)" d="M 299.5,20.5 C 300.482,23.9619 300.815,27.6286 300.5,31.5C 306.259,31.6041 311.926,32.1041 317.5,33C 320.653,30.1954 322.319,26.6954 322.5,22.5C 323.675,22.281 324.675,22.6143 325.5,23.5C 324.399,27.5381 322.399,31.0381 319.5,34C 324.776,36.8879 329.609,40.3879 334,44.5C 334.749,45.635 334.583,46.635 333.5,47.5C 321.564,35.2636 307.23,31.2636 290.5,35.5C 288.269,35.0191 288.102,34.3524 290,33.5C 292.791,32.5938 295.624,31.9272 298.5,31.5C 298.244,27.7307 298.577,24.0641 299.5,20.5 Z"/></g>
<g><path style="opacity:1" fill="#ecaca3" d="M 288.5,12.5 C 288.217,13.2891 287.717,13.9558 287,14.5C 286.52,22.5571 285.354,30.2238 283.5,37.5C 284.134,29.4914 284.968,21.4914 286,13.5C 286.671,12.7476 287.504,12.4142 288.5,12.5 Z"/></g>
<g><path style="opacity:0.004" fill="#f8e0dd" d="M 352.5,46.5 C 352.573,48.0269 351.906,49.0269 350.5,49.5C 350.427,47.9731 351.094,46.9731 352.5,46.5 Z"/></g>
<g><path style="opacity:0.004" fill="#faeceb" d="M 348.5,51.5 C 347.581,54.0892 345.914,56.0892 343.5,57.5C 344.419,54.9108 346.086,52.9108 348.5,51.5 Z"/></g>
<g><path style="opacity:1" fill="rgb(247 147 98)" d="M 275.5,60.5 C 277.549,60.7058 277.883,61.5391 276.5,63C 266.077,68.4191 255.077,71.9191 243.5,73.5C 243.5,72.5 243.5,71.5 243.5,70.5C 255.141,69.9982 265.808,66.6649 275.5,60.5 Z"/></g>
<g><path style="opacity:1" fill="#3c3c38" d="M 178.5,73.5 C 178.5,75.8333 178.5,78.1667 178.5,80.5C 182.167,80.5 185.833,80.5 189.5,80.5C 190.791,80.2627 191.791,80.596 192.5,81.5C 193.5,83.1667 194.833,84.5 196.5,85.5C 197.29,86.6085 197.79,87.9419 198,89.5C 198.5,98.1603 198.666,106.827 198.5,115.5C 198.667,127.505 198.5,139.505 198,151.5C 197.4,153.91 196.234,155.91 194.5,157.5C 192.57,157.771 191.236,158.771 190.5,160.5C 189.167,160.5 187.833,160.5 186.5,160.5C 187.092,157.873 187.425,155.206 187.5,152.5C 188.329,147.547 188.663,142.547 188.5,137.5C 187.127,137.343 185.793,137.51 184.5,138C 181.459,143.25 178.292,148.417 175,153.5C 172.654,156.505 169.654,158.505 166,159.5C 162.818,173.576 159.318,187.576 155.5,201.5C 154.89,202.391 154.557,203.391 154.5,204.5C 151.587,209.422 148.254,214.088 144.5,218.5C 143.599,219.29 142.932,220.29 142.5,221.5C 138.167,225.167 134.167,229.167 130.5,233.5C 129.599,234.29 128.932,235.29 128.5,236.5C 127.083,239.669 125.417,242.669 123.5,245.5C 121.489,247.667 120.322,250.334 120,253.5C 119.333,258.833 119.333,264.167 120,269.5C 120.278,270.416 120.778,271.082 121.5,271.5C 123.736,275.294 127.069,277.627 131.5,278.5C 135.914,280.155 136.581,282.822 133.5,286.5C 129.131,286.533 124.798,286.2 120.5,285.5C 111.746,281.181 107.413,274.015 107.5,264C 108.292,251.925 112.958,241.758 121.5,233.5C 123.587,232.415 124.92,230.749 125.5,228.5C 125.833,227.5 126.5,226.833 127.5,226.5C 128.5,226.167 129.167,225.5 129.5,224.5C 134.302,219.573 138.635,214.24 142.5,208.5C 143.11,207.609 143.443,206.609 143.5,205.5C 147.691,199.786 150.857,193.452 153,186.5C 156.21,177.476 157.71,168.309 157.5,159C 149.489,157.585 141.822,155.418 134.5,152.5C 132.365,150.631 129.698,149.964 126.5,150.5C 121.84,150.21 117.34,149.21 113,147.5C 110.413,148.207 108.246,149.541 106.5,151.5C 105.547,153.61 103.881,154.777 101.5,155C 90.505,155.5 79.505,155.667 68.5,155.5C 80.1253,132.661 80.4587,109.661 69.5,86.5C 79.5,86.5 89.5,86.5 99.5,86.5C 100.167,86.5 100.833,86.5 101.5,86.5C 103.823,89.1349 105.656,92.1349 107,95.5C 107.333,109.167 107.667,122.833 108,136.5C 108.414,136.957 108.914,137.291 109.5,137.5C 110.499,123.516 110.833,109.516 110.5,95.5C 118.684,95.8257 126.684,95.4924 134.5,94.5C 134.5,90.1667 134.5,85.8333 134.5,81.5C 124.07,83.2373 120.903,79.2373 125,69.5C 126.637,67.1898 128.804,65.6898 131.5,65C 144.167,64.3333 156.833,64.3333 169.5,65C 174.313,65.9811 177.313,68.8145 178.5,73.5 Z"/></g>
<g><path style="opacity:0.702" fill="#ebada7" d="M 343.5,58.5 C 344.768,60.9052 345.435,63.5718 345.5,66.5C 343.96,64.1617 343.294,61.4951 343.5,58.5 Z"/></g>
<g><path style="opacity:0.973" fill="#edb1ac" d="M 345.5,66.5 C 346.913,69.2186 347.58,72.2186 347.5,75.5C 346.087,72.7814 345.42,69.7814 345.5,66.5 Z"/></g>
<g><path style="opacity:1" fill="rgb(247 147 98)" d="M 304.5,68.5 C 306.028,68.5173 306.528,69.184 306,70.5C 295.633,80.6811 283.133,85.6811 268.5,85.5C 268.5,84.5 268.5,83.5 268.5,82.5C 282.849,83.5011 294.849,78.8344 304.5,68.5 Z"/></g>
<g><path style="opacity:0.757" fill="#d5cabd" d="M 178.5,73.5 C 179.234,74.8775 179.901,76.3775 180.5,78C 183.579,78.9728 186.579,79.8061 189.5,80.5C 185.833,80.5 182.167,80.5 178.5,80.5C 178.5,78.1667 178.5,75.8333 178.5,73.5 Z"/></g>
<g><path style="opacity:0.016" fill="#e8e2db" d="M 192.5,81.5 C 194.833,81.8333 196.167,83.1667 196.5,85.5C 194.833,84.5 193.5,83.1667 192.5,81.5 Z"/></g>
<g><path style="opacity:0.999" fill="#fcc582" d="M 323.5,138.5 C 315.651,141.033 309.151,145.7 304,152.5C 297.809,160.219 292.642,168.552 288.5,177.5C 284.859,180.805 281.192,184.138 277.5,187.5C 277.083,186.876 276.416,186.543 275.5,186.5C 264.565,188.33 253.565,188.83 242.5,188C 236.1,186.601 231.934,182.767 230,176.5C 224.709,156.175 221.542,135.508 220.5,114.5C 224.096,113.7 227.096,111.866 229.5,109C 229.167,108.5 228.833,108 228.5,107.5C 226.142,109.678 223.475,111.345 220.5,112.5C 220.403,104.809 220.737,97.1421 221.5,89.5C 222.552,89.6495 223.552,89.4828 224.5,89C 226.404,85.4286 229.237,82.9286 233,81.5C 240.021,92.5189 249.521,100.686 261.5,106C 266.697,108.3 272.03,108.8 277.5,107.5C 266.42,105.79 256.42,101.623 247.5,95C 244.078,92.2807 241.578,89.1141 240,85.5C 255.56,102.746 274.393,108.079 296.5,101.5C 298.998,104.655 300.332,108.322 300.5,112.5C 302.144,112.714 303.644,112.38 305,111.5C 305.333,106.833 305.667,102.167 306,97.5C 311.714,91.9104 317.047,92.2437 322,98.5C 326.118,108.379 324.618,117.379 317.5,125.5C 319.769,129.705 321.769,134.038 323.5,138.5 Z"/></g>
<g><path style="opacity:0.808" fill="#cebfae" d="M 99.5,86.5 C 89.5,86.5 79.5,86.5 69.5,86.5C 68.8333,86.5 68.1667,86.5 67.5,86.5C 61.7414,86.2143 56.0748,86.5476 50.5,87.5C 58.3049,86.1688 66.4716,85.5021 75,85.5C 83.3403,85.5003 91.507,85.8336 99.5,86.5 Z"/></g>
<g><path style="opacity:1" fill="#403f3b" d="M 67.5,86.5 C 69.6078,91.316 71.4411,96.316 73,101.5C 74.5111,112.122 74.8444,122.789 74,133.5C 72.1216,140.964 69.9549,148.297 67.5,155.5C 62.1563,155.666 56.8229,155.499 51.5,155C 49.1208,152.773 48.9541,150.273 51,147.5C 53.0673,144.93 55.5673,142.93 58.5,141.5C 54.6526,131.403 53.6526,121.069 55.5,110.5C 56.9238,108.485 57.5905,106.152 57.5,103.5C 57.5569,102.391 57.8902,101.391 58.5,100.5C 59.0431,100.44 59.3764,100.107 59.5,99.5C 58.675,98.6143 57.675,98.281 56.5,98.5C 51.0062,96.5034 49.0062,92.8367 50.5,87.5C 56.0748,86.5476 61.7414,86.2143 67.5,86.5 Z"/></g>
<g><path style="opacity:1" fill="#b3414e" d="M 67.5,86.5 C 68.1667,86.5 68.8333,86.5 69.5,86.5C 80.4587,109.661 80.1253,132.661 68.5,155.5C 68.1667,155.5 67.8333,155.5 67.5,155.5C 69.9549,148.297 72.1216,140.964 74,133.5C 74.8444,122.789 74.5111,112.122 73,101.5C 71.4411,96.316 69.6078,91.316 67.5,86.5 Z"/></g>
<g><path style="opacity:1" fill="#6e675c" d="M 101.5,86.5 C 105.585,86.5823 108.252,88.5823 109.5,92.5C 117.759,94.0506 126.092,94.7173 134.5,94.5C 126.684,95.4924 118.684,95.8257 110.5,95.5C 110.833,109.516 110.499,123.516 109.5,137.5C 108.914,137.291 108.414,136.957 108,136.5C 107.667,122.833 107.333,109.167 107,95.5C 105.656,92.1349 103.823,89.1349 101.5,86.5 Z"/></g>
<g><path style="opacity:1" fill="#b93c50" d="M 196.5,94.5 C 190.463,94.1707 184.463,94.5041 178.5,95.5C 178.624,96.1067 178.957,96.44 179.5,96.5C 181.734,109.711 182.068,123.045 180.5,136.5C 179.779,134.314 179.113,132.147 178.5,130C 174.514,129.501 170.514,129.334 166.5,129.5C 166.5,127.5 166.5,125.5 166.5,123.5C 170.833,123.5 175.167,123.5 179.5,123.5C 179.821,117.974 179.488,112.64 178.5,107.5C 179.259,102.167 177.926,97.5006 174.5,93.5C 178.167,93.1667 181.833,92.8333 185.5,92.5C 189.565,92.5112 193.232,93.1778 196.5,94.5 Z"/></g>
<g><path style="opacity:1" fill="#5b564c" d="M 146.5,93.5 C 149.452,94.3589 151.285,96.3589 152,99.5C 152.833,112.18 152.666,124.846 151.5,137.5C 150.914,137.291 150.414,136.957 150,136.5C 149.667,124.5 149.333,112.5 149,100.5C 148.208,98.4127 147.041,96.5793 145.5,95C 146.056,94.6174 146.389,94.1174 146.5,93.5 Z"/></g>
<g><path style="opacity:1" fill="#885343" d="M 196.5,94.5 C 190.833,95.1667 185.167,95.8333 179.5,96.5C 178.957,96.44 178.624,96.1067 178.5,95.5C 184.463,94.5041 190.463,94.1707 196.5,94.5 Z"/></g>
<g><path style="opacity:0.322" fill="#f2ede7" d="M 56.5,98.5 C 57.675,98.281 58.675,98.6143 59.5,99.5C 59.3764,100.107 59.0431,100.44 58.5,100.5C 57.8333,99.8333 57.1667,99.1667 56.5,98.5 Z"/></g>
<g><path style="opacity:1" fill="#4e463b" d="M 254.5,106.5 C 255.552,106.351 256.552,106.517 257.5,107C 252.3,111.676 246.3,113.842 239.5,113.5C 244.722,111.754 249.722,109.42 254.5,106.5 Z"/></g>
<g><path style="opacity:1" fill="#7e5141" d="M 178.5,107.5 C 179.488,112.64 179.821,117.974 179.5,123.5C 175.167,123.5 170.833,123.5 166.5,123.5C 170.298,122.517 174.298,122.183 178.5,122.5C 178.5,117.5 178.5,112.5 178.5,107.5 Z"/></g>
<g><path style="opacity:1" fill="#52493d" d="M 220.5,114.5 C 220.5,113.833 220.5,113.167 220.5,112.5C 223.475,111.345 226.142,109.678 228.5,107.5C 228.833,108 229.167,108.5 229.5,109C 227.096,111.866 224.096,113.7 220.5,114.5 Z"/></g>
<g><path style="opacity:0.51" fill="#bbac9c" d="M 57.5,103.5 C 57.5905,106.152 56.9238,108.485 55.5,110.5C 55.4095,107.848 56.0762,105.515 57.5,103.5 Z"/></g>
<g><path style="opacity:1" fill="rgb(247 147 98)" d="M 347.5,110.5 C 348.497,110.47 349.164,110.97 349.5,112C 346.591,121.743 340.591,128.91 331.5,133.5C 330.167,132.5 330.167,131.5 331.5,130.5C 339.689,126.123 345.023,119.457 347.5,110.5 Z"/></g>
<g><path style="opacity:1" fill="#4b453a" d="M 235.5,113.5 C 236.586,113.62 237.253,114.287 237.5,115.5C 234.54,124.319 233.04,133.319 233,142.5C 234.975,147.144 238.475,149.31 243.5,149C 237.197,151.425 233.03,149.259 231,142.5C 230.552,132.522 232.052,122.856 235.5,113.5 Z"/></g>
<g><path style="opacity:1" fill="#484239" d="M 253.5,117.5 C 254.497,117.47 255.164,117.97 255.5,119C 254.201,120.326 252.868,121.66 251.5,123C 252.5,123.333 253.5,123.667 254.5,124C 251.489,126.502 248.155,127.002 244.5,125.5C 247.761,123.051 250.761,120.384 253.5,117.5 Z"/></g>
<g><path style="opacity:1" fill="rgb(247 147 98)" d="M 339.5,114.5 C 340.497,114.47 341.164,114.97 341.5,116C 339.709,120.292 336.709,123.458 332.5,125.5C 331.479,124.998 331.312,124.332 332,123.5C 335.806,121.532 338.306,118.532 339.5,114.5 Z"/></g>
<g><path style="opacity:1" fill="#574c3d" d="M 225.5,122.5 C 230.34,123.188 230.673,124.855 226.5,127.5C 224.296,126.218 223.962,124.551 225.5,122.5 Z"/></g>
<g><path style="opacity:0.994" fill="#fdc683" d="M 198.5,115.5 C 199.166,120.017 199.833,124.683 200.5,129.5C 206.796,136.923 209.463,145.59 208.5,155.5C 208.5,162.167 208.5,168.833 208.5,175.5C 199.771,181.532 190.438,186.532 180.5,190.5C 182.121,180.395 184.121,170.395 186.5,160.5C 187.833,160.5 189.167,160.5 190.5,160.5C 189.197,164.382 188.53,168.382 188.5,172.5C 189.5,172.5 190.5,172.5 191.5,172.5C 191.336,169.813 191.503,167.146 192,164.5C 193.118,162.235 193.951,159.901 194.5,157.5C 196.234,155.91 197.4,153.91 198,151.5C 198.5,139.505 198.667,127.505 198.5,115.5 Z"/></g>
<g><path style="opacity:1" fill="#5e584e" d="M 114.5,130.5 C 124.172,130.334 133.839,130.5 143.5,131C 143.957,131.414 144.291,131.914 144.5,132.5C 134.167,133.833 123.833,133.833 113.5,132.5C 113.863,131.817 114.196,131.15 114.5,130.5 Z"/></g>
<g><path style="opacity:1" fill="rgb(247 147 98)" d="M 387.5,267.5 C 383.167,267.5 378.833,267.5 374.5,267.5C 375.524,261.068 377.024,254.735 379,248.5C 380.457,239.553 381.29,230.553 381.5,221.5C 380.5,221.5 379.5,221.5 378.5,221.5C 378.883,231.606 378.05,241.606 376,251.5C 364.761,285.598 358.928,320.598 358.5,356.5C 358.504,362.872 359.171,368.872 360.5,374.5C 360.963,377.33 361.629,379.997 362.5,382.5C 366.061,399.137 369.561,415.804 373,432.5C 374.405,440.792 374.738,449.125 374,457.5C 369.915,466.901 362.748,472.734 352.5,475C 347.552,476.256 342.552,477.256 337.5,478C 312.854,479.719 288.187,481.052 263.5,482C 239.566,486.72 215.566,491.053 191.5,495C 161.07,497.287 144.07,483.287 140.5,453C 140.741,449.793 141.241,446.626 142,443.5C 147.403,431.364 152.237,419.031 156.5,406.5C 158.28,405.01 158.946,403.01 158.5,400.5C 158.767,398.035 159.434,395.701 160.5,393.5C 186.033,399.61 211.7,399.943 237.5,394.5C 236.4,412.697 240.9,429.363 251,444.5C 253.021,446.605 255.021,448.605 257,450.5C 258.257,450.15 258.591,449.483 258,448.5C 244.031,432.761 238.198,414.428 240.5,393.5C 243.399,392.358 246.399,391.692 249.5,391.5C 249.489,401.968 251.656,411.968 256,421.5C 260.939,430.101 266.272,438.435 272,446.5C 272.667,450.167 272.667,453.833 272,457.5C 271.363,459.303 270.197,460.636 268.5,461.5C 269.365,462.583 270.365,462.749 271.5,462C 275.052,457.778 276.219,452.945 275,447.5C 269.333,438.5 263.667,429.5 258,420.5C 253.469,410.316 251.636,399.649 252.5,388.5C 241.29,391.174 229.957,393.341 218.5,395C 199.319,396.378 180.319,395.211 161.5,391.5C 164.304,381.283 166.637,370.95 168.5,360.5C 174.082,363.411 179.415,366.744 184.5,370.5C 186.95,371.777 189.283,373.277 191.5,375C 192.5,375.667 193.5,375.667 194.5,375C 238.198,353.151 281.864,331.318 325.5,309.5C 323.534,308.628 321.534,308.795 319.5,310C 277.926,330.954 236.259,351.621 194.5,372C 191.587,372.048 188.921,371.215 186.5,369.5C 171.82,359.066 156.987,348.732 142,338.5C 138.36,325.116 136.36,311.449 136,297.5C 135.329,296.748 134.496,296.414 133.5,296.5C 133.5,293.833 133.5,291.167 133.5,288.5C 133.5,287.833 133.5,287.167 133.5,286.5C 136.581,282.822 135.914,280.155 131.5,278.5C 131.237,266.498 130.903,254.498 130.5,242.5C 130.5,239.5 130.5,236.5 130.5,233.5C 134.167,229.167 138.167,225.167 142.5,221.5C 155.543,217.763 168.543,213.93 181.5,210C 185.833,209.333 190.167,209.333 194.5,210C 207.891,221.546 219.224,234.712 228.5,249.5C 228.831,245.612 227.497,242.112 224.5,239C 247.073,214.573 272.74,194.24 301.5,178C 322.362,170.77 340.362,175.103 355.5,191C 356.635,191.749 357.635,191.583 358.5,190.5C 345.653,176.271 329.653,170.438 310.5,173C 302.821,175.194 295.487,177.86 288.5,181C 298.619,170.541 309.619,161.208 321.5,153C 325.572,152.342 329.572,152.675 333.5,154C 353.831,165.497 373.831,177.497 393.5,190C 394.833,190.667 396.167,190.667 397.5,190C 379.334,178.416 361.001,167.083 342.5,156C 337.24,152.747 331.574,150.58 325.5,149.5C 321.38,149.928 317.713,151.428 314.5,154C 305.963,162.04 297.296,169.874 288.5,177.5C 292.642,168.552 297.809,160.219 304,152.5C 309.151,145.7 315.651,141.033 323.5,138.5C 324.117,138.611 324.617,138.944 325,139.5C 329.037,138.207 333.204,137.374 337.5,137C 339.811,136.764 341.811,135.931 343.5,134.5C 343.833,135.833 344.167,135.833 344.5,134.5C 352.501,133.907 360.501,133.241 368.5,132.5C 379.876,131.566 389.043,135.566 396,144.5C 406.905,160.883 413.239,178.883 415,198.5C 425.542,204.443 434.209,212.443 441,222.5C 441.808,232.724 438.308,241.224 430.5,248C 418.166,258.832 403.833,265.332 387.5,267.5 Z"/></g>
<g><path style="opacity:1" fill="#fac480" d="M 187.5,152.5 C 186.172,153.507 185.172,154.84 184.5,156.5C 181.808,169.129 179.308,181.795 177,194.5C 169.874,196.931 162.707,199.264 155.5,201.5C 159.318,187.576 162.818,173.576 166,159.5C 169.654,158.505 172.654,156.505 175,153.5C 178.292,148.417 181.459,143.25 184.5,138C 185.793,137.51 187.127,137.343 188.5,137.5C 188.663,142.547 188.329,147.547 187.5,152.5 Z"/></g>
<g><path style="opacity:0.998" fill="#fbc481" d="M 126.5,150.5 C 128.905,151.768 131.572,152.435 134.5,152.5C 141.822,155.418 149.489,157.585 157.5,159C 157.71,168.309 156.21,177.476 153,186.5C 150.857,193.452 147.691,199.786 143.5,205.5C 139.777,206.297 136.11,207.297 132.5,208.5C 132.54,205.575 131.707,202.909 130,200.5C 126,197.167 122,193.833 118,190.5C 116.589,188.35 115.755,186.016 115.5,183.5C 119.417,187.403 124.083,190.07 129.5,191.5C 130.386,190.675 130.719,189.675 130.5,188.5C 123.641,187.795 118.975,184.295 116.5,178C 116.833,177.5 117.167,177 117.5,176.5C 121.33,179.938 125.664,181.272 130.5,180.5C 124.329,179.006 119.496,175.673 116,170.5C 115.333,168.833 115.333,167.167 116,165.5C 123.496,171.443 131.996,173.943 141.5,173C 133.547,171.348 125.881,168.682 118.5,165C 114.141,161.769 111.141,157.603 109.5,152.5C 108.571,153.689 108.238,155.022 108.5,156.5C 107.833,154.833 107.167,153.167 106.5,151.5C 108.246,149.541 110.413,148.207 113,147.5C 117.34,149.21 121.84,150.21 126.5,150.5 Z"/></g>
<g><path style="opacity:1" fill="#fffaf6" d="M 126.5,150.5 C 129.698,149.964 132.365,150.631 134.5,152.5C 131.572,152.435 128.905,151.768 126.5,150.5 Z"/></g>
<g><path style="opacity:1" fill="#4a443a" d="M 266.5,148.5 C 267.376,148.369 268.043,148.702 268.5,149.5C 263.994,158.175 257.16,164.175 248,167.5C 247.5,167 247,166.5 246.5,166C 255.425,162.711 262.092,156.877 266.5,148.5 Z"/></g>
<g><path style="opacity:1" fill="#c74c58" d="M 115.5,183.5 C 114.087,180.781 113.42,177.781 113.5,174.5C 113.666,170.486 113.499,166.486 113,162.5C 112.292,161.619 111.458,160.953 110.5,160.5C 109.326,159.486 108.66,158.153 108.5,156.5C 108.238,155.022 108.571,153.689 109.5,152.5C 111.141,157.603 114.141,161.769 118.5,165C 125.881,168.682 133.547,171.348 141.5,173C 131.996,173.943 123.496,171.443 116,165.5C 115.333,167.167 115.333,168.833 116,170.5C 119.496,175.673 124.329,179.006 130.5,180.5C 125.664,181.272 121.33,179.938 117.5,176.5C 117.167,177 116.833,177.5 116.5,178C 118.975,184.295 123.641,187.795 130.5,188.5C 130.719,189.675 130.386,190.675 129.5,191.5C 124.083,190.07 119.417,187.403 115.5,183.5 Z"/></g>
<g><path style="opacity:0.792" fill="#f6d6cf" d="M 110.5,160.5 C 111.458,160.953 112.292,161.619 113,162.5C 113.499,166.486 113.666,170.486 113.5,174.5C 112.667,169.919 111.667,165.253 110.5,160.5 Z"/></g>
<g><path style="opacity:1" fill="#c44653" d="M 142.5,221.5 C 142.932,220.29 143.599,219.29 144.5,218.5C 154.058,215.425 163.725,212.758 173.5,210.5C 173.705,206.296 172.538,202.629 170,199.5C 164.707,200.876 159.54,202.542 154.5,204.5C 154.557,203.391 154.89,202.391 155.5,201.5C 162.707,199.264 169.874,196.931 177,194.5C 179.308,181.795 181.808,169.129 184.5,156.5C 185.172,154.84 186.172,153.507 187.5,152.5C 187.425,155.206 187.092,157.873 186.5,160.5C 184.121,170.395 182.121,180.395 180.5,190.5C 180.5,191.5 180.5,192.5 180.5,193.5C 181.5,193.5 182.5,193.5 183.5,193.5C 184.275,197.814 184.941,202.147 185.5,206.5C 188.518,206.335 191.518,206.502 194.5,207C 204.276,216.198 213.609,225.865 222.5,236C 224.412,236.279 225.746,235.446 226.5,233.5C 230.806,229.86 234.806,225.86 238.5,221.5C 243.33,215.837 248.663,210.67 254.5,206C 256.734,204.25 259.068,202.75 261.5,201.5C 264.427,200.243 266.761,198.243 268.5,195.5C 271.764,193.906 274.431,191.573 276.5,188.5C 276.5,187.833 276.833,187.5 277.5,187.5C 281.192,184.138 284.859,180.805 288.5,177.5C 297.296,169.874 305.963,162.04 314.5,154C 317.713,151.428 321.38,149.928 325.5,149.5C 331.574,150.58 337.24,152.747 342.5,156C 361.001,167.083 379.334,178.416 397.5,190C 396.167,190.667 394.833,190.667 393.5,190C 373.831,177.497 353.831,165.497 333.5,154C 329.572,152.675 325.572,152.342 321.5,153C 309.619,161.208 298.619,170.541 288.5,181C 295.487,177.86 302.821,175.194 310.5,173C 329.653,170.438 345.653,176.271 358.5,190.5C 357.635,191.583 356.635,191.749 355.5,191C 340.362,175.103 322.362,170.77 301.5,178C 272.74,194.24 247.073,214.573 224.5,239C 227.497,242.112 228.831,245.612 228.5,249.5C 219.224,234.712 207.891,221.546 194.5,210C 190.167,209.333 185.833,209.333 181.5,210C 168.543,213.93 155.543,217.763 142.5,221.5 Z"/></g>
<g><path style="opacity:0.247" fill="#feebd3" d="M 208.5,155.5 C 209.311,162.678 209.978,170.012 210.5,177.5C 209.833,176.833 209.167,176.167 208.5,175.5C 208.5,168.833 208.5,162.167 208.5,155.5 Z"/></g>
<g><path style="opacity:1" fill="#c44a54" d="M 194.5,157.5 C 193.951,159.901 193.118,162.235 192,164.5C 191.503,167.146 191.336,169.813 191.5,172.5C 190.5,172.5 189.5,172.5 188.5,172.5C 188.53,168.382 189.197,164.382 190.5,160.5C 191.236,158.771 192.57,157.771 194.5,157.5 Z"/></g>
<g><path style="opacity:0.999" fill="rgb(247 147 98)" d="M 208.5,175.5 C 209.167,176.167 209.833,176.833 210.5,177.5C 210.616,180.86 210.949,184.193 211.5,187.5C 214.141,186.737 216.808,186.57 219.5,187C 220.191,188.067 220.691,189.234 221,190.5C 223.158,202.739 224.325,215.073 224.5,227.5C 224.054,230.01 224.72,232.01 226.5,233.5C 225.746,235.446 224.412,236.279 222.5,236C 213.609,225.865 204.276,216.198 194.5,207C 191.518,206.502 188.518,206.335 185.5,206.5C 184.941,202.147 184.275,197.814 183.5,193.5C 182.5,193.5 181.5,193.5 180.5,193.5C 180.5,192.5 180.5,191.5 180.5,190.5C 190.438,186.532 199.771,181.532 208.5,175.5 Z"/></g>
<g><path style="opacity:1" fill="#c54653" d="M 148.5,168.5 C 150.225,168.843 150.725,169.843 150,171.5C 142.539,178.748 137.372,187.415 134.5,197.5C 133.398,194.81 133.564,192.143 135,189.5C 138.513,181.792 143.013,174.792 148.5,168.5 Z"/></g>
<g><path style="opacity:0.51" fill="#f4cec4" d="M 276.5,188.5 C 274.431,191.573 271.764,193.906 268.5,195.5C 270.569,192.427 273.236,190.094 276.5,188.5 Z"/></g>
<g><path style="opacity:1" fill="rgb(247 147 98)" d="M 177.5,196.5 C 178.833,196.5 180.167,196.5 181.5,196.5C 182.326,200.136 182.992,203.803 183.5,207.5C 181.105,208.363 178.771,208.363 176.5,207.5C 175.42,204.668 174.42,201.835 173.5,199C 174.858,198.066 176.192,197.232 177.5,196.5 Z"/></g>
<g><path style="opacity:0.973" fill="#e9a6a3" d="M 268.5,195.5 C 266.761,198.243 264.427,200.243 261.5,201.5C 263.239,198.757 265.573,196.757 268.5,195.5 Z"/></g>
<g><path style="opacity:1" fill="rgb(247 147 98)" d="M 144.5,218.5 C 148.254,214.088 151.587,209.422 154.5,204.5C 159.54,202.542 164.707,200.876 170,199.5C 172.538,202.629 173.705,206.296 173.5,210.5C 163.725,212.758 154.058,215.425 144.5,218.5 Z"/></g>
<g><path style="opacity:1" fill="#c7505a" d="M 143.5,205.5 C 143.443,206.609 143.11,207.609 142.5,208.5C 138.031,209.435 133.697,210.768 129.5,212.5C 128.833,212.167 128.167,211.833 127.5,211.5C 128.401,209.273 130.067,208.273 132.5,208.5C 136.11,207.297 139.777,206.297 143.5,205.5 Z"/></g>
<g><path style="opacity:1" fill="rgb(247 147 98)" d="M 142.5,208.5 C 138.635,214.24 134.302,219.573 129.5,224.5C 129.5,220.5 129.5,216.5 129.5,212.5C 133.697,210.768 138.031,209.435 142.5,208.5 Z"/></g>
<g><path style="opacity:0.898" fill="#f7d4b6" d="M 127.5,211.5 C 128.167,211.833 128.833,212.167 129.5,212.5C 129.5,216.5 129.5,220.5 129.5,224.5C 129.167,225.5 128.5,226.167 127.5,226.5C 128.69,221.523 128.69,216.523 127.5,211.5 Z"/></g>
<g><path style="opacity:1" fill="#cb555e" d="M 374.5,267.5 C 373.566,268.568 373.232,269.901 373.5,271.5C 371.736,280.007 369.736,288.34 367.5,296.5C 366.097,299.909 365.43,303.575 365.5,307.5C 365.32,312.936 364.654,318.27 363.5,323.5C 361.847,330.262 361.18,337.262 361.5,344.5C 360.506,354.319 360.173,364.319 360.5,374.5C 359.171,368.872 358.504,362.872 358.5,356.5C 358.928,320.598 364.761,285.598 376,251.5C 378.05,241.606 378.883,231.606 378.5,221.5C 379.5,221.5 380.5,221.5 381.5,221.5C 381.29,230.553 380.457,239.553 379,248.5C 377.024,254.735 375.524,261.068 374.5,267.5 Z"/></g>
<g><path style="opacity:0.631" fill="#f4c8bd" d="M 238.5,221.5 C 234.806,225.86 230.806,229.86 226.5,233.5C 224.72,232.01 224.054,230.01 224.5,227.5C 225.232,228.808 226.066,230.142 227,231.5C 230.429,227.561 234.263,224.228 238.5,221.5 Z"/></g>
<g><path style="opacity:0.573" fill="#c0b09f" d="M 125.5,228.5 C 124.92,230.749 123.587,232.415 121.5,233.5C 122.08,231.251 123.413,229.585 125.5,228.5 Z"/></g>
<g><path style="opacity:0.525" fill="#f8dfc9" d="M 130.5,233.5 C 130.5,236.5 130.5,239.5 130.5,242.5C 129.833,240.5 129.167,238.5 128.5,236.5C 128.932,235.29 129.599,234.29 130.5,233.5 Z"/></g>
<g><path style="opacity:0.116" fill="#e8e3de" d="M 123.5,245.5 C 120.466,253.973 119.799,262.64 121.5,271.5C 120.778,271.082 120.278,270.416 120,269.5C 119.333,264.167 119.333,258.833 120,253.5C 120.322,250.334 121.489,247.667 123.5,245.5 Z"/></g>
<g><path style="opacity:0.914" fill="#fed6b4" d="M 374.5,267.5 C 378.833,267.5 383.167,267.5 387.5,267.5C 384.359,268.321 381.025,268.821 377.5,269C 376.016,269.662 374.683,270.496 373.5,271.5C 373.232,269.901 373.566,268.568 374.5,267.5 Z"/></g>
<g><path style="opacity:0.555" fill="#cec4b8" d="M 120.5,285.5 C 124.798,286.2 129.131,286.533 133.5,286.5C 133.5,287.167 133.5,287.833 133.5,288.5C 128.959,288.006 124.626,287.006 120.5,285.5 Z"/></g>
<g><path style="opacity:0.058" fill="#f8dcd8" d="M 367.5,296.5 C 367.57,300.425 366.903,304.091 365.5,307.5C 365.43,303.575 366.097,299.909 367.5,296.5 Z"/></g>
<g><path style="opacity:1" fill="#c44451" d="M 184.5,370.5 C 184.842,369.662 185.508,369.328 186.5,369.5C 188.921,371.215 191.587,372.048 194.5,372C 236.259,351.621 277.926,330.954 319.5,310C 321.534,308.795 323.534,308.628 325.5,309.5C 281.864,331.318 238.198,353.151 194.5,375C 193.5,375.667 192.5,375.667 191.5,375C 189.283,373.277 186.95,371.777 184.5,370.5 Z"/></g>
<g><path style="opacity:0.149" fill="#fcf1f0" d="M 363.5,323.5 C 363.131,334.338 362.465,345.005 361.5,355.5C 361.5,351.833 361.5,348.167 361.5,344.5C 361.18,337.262 361.847,330.262 363.5,323.5 Z"/></g>
<g><path style="opacity:1" fill="#d16469" d="M 133.5,296.5 C 134.496,296.414 135.329,296.748 136,297.5C 136.36,311.449 138.36,325.116 142,338.5C 156.987,348.732 171.82,359.066 186.5,369.5C 185.508,369.328 184.842,369.662 184.5,370.5C 179.415,366.744 174.082,363.411 168.5,360.5C 158.008,354.521 148.174,347.521 139,339.5C 134.981,325.471 133.148,311.137 133.5,296.5 Z"/></g>
<g><path style="opacity:0.737" fill="#eebeb8" d="M 361.5,344.5 C 361.5,348.167 361.5,351.833 361.5,355.5C 361.401,364.521 361.734,373.521 362.5,382.5C 361.629,379.997 360.963,377.33 360.5,374.5C 360.173,364.319 360.506,354.319 361.5,344.5 Z"/></g>
<g><path style="opacity:0.997" fill="#c54652" d="M 160.5,393.5 C 160.328,392.508 160.662,391.842 161.5,391.5C 180.319,395.211 199.319,396.378 218.5,395C 229.957,393.341 241.29,391.174 252.5,388.5C 251.636,399.649 253.469,410.316 258,420.5C 263.667,429.5 269.333,438.5 275,447.5C 276.219,452.945 275.052,457.778 271.5,462C 270.365,462.749 269.365,462.583 268.5,461.5C 270.197,460.636 271.363,459.303 272,457.5C 272.667,453.833 272.667,450.167 272,446.5C 266.272,438.435 260.939,430.101 256,421.5C 251.656,411.968 249.489,401.968 249.5,391.5C 246.399,391.692 243.399,392.358 240.5,393.5C 238.198,414.428 244.031,432.761 258,448.5C 258.591,449.483 258.257,450.15 257,450.5C 255.021,448.605 253.021,446.605 251,444.5C 240.9,429.363 236.4,412.697 237.5,394.5C 211.7,399.943 186.033,399.61 160.5,393.5 Z"/></g>
<g><path style="opacity:1" fill="#ffdbba" d="M 158.5,400.5 C 158.946,403.01 158.28,405.01 156.5,406.5C 156.595,404.214 157.262,402.214 158.5,400.5 Z"/></g>
</svg>
