<?xml version="1.0" standalone="no"?>
<!DOCTYPE svg PUBLIC "-//W3C//DTD SVG 20010904//EN"
 "http://www.w3.org/TR/2001/REC-SVG-20010904/DTD/svg10.dtd">
<svg version="1.0" xmlns="http://www.w3.org/2000/svg"
 width="491.000000pt" height="515.000000pt" viewBox="0 0 491.000000 515.000000"
 preserveAspectRatio="xMidYMid meet">

<g transform="translate(0.000000,515.000000) scale(0.100000,-0.100000)"
fill="#000000" stroke="none">
<path d="M2330 5120 c-126 -9 -245 -30 -377 -69 -128 -37 -185 -60 -323 -132
-519 -269 -877 -786 -950 -1372 -18 -142 -8 -423 20 -561 142 -708 670 -1252
1370 -1412 238 -54 552 -54 790 0 332 76 635 241 870 476 259 258 428 575 500
936 28 138 38 419 20 561 -73 586 -431 1103 -950 1372 -139 72 -194 94 -325
133 -199 58 -429 82 -645 68z m-496 -367 c-53 -172 -139 -571 -160 -743 -7
-54 -7 -54 14 -40 337 241 711 438 1101 582 131 48 460 148 488 148 18 0 154
-91 148 -100 -2 -3 -30 -12 -62 -19 -162 -36 -572 -168 -719 -232 l-49 -21
131 -62 c425 -204 800 -474 1182 -852 l154 -151 -7 -84 c-4 -46 -9 -86 -12
-88 -2 -3 -73 65 -158 151 -176 178 -479 449 -489 437 -2 -2 0 -39 5 -82 46
-467 -7 -1063 -139 -1557 l-28 -105 -83 -44 c-80 -41 -84 -42 -78 -20 3 13 30
122 61 241 51 200 124 584 113 594 -3 3 -48 -26 -100 -64 -264 -191 -638 -386
-998 -520 -143 -54 -468 -152 -501 -152 -18 0 -161 91 -154 98 2 1 73 21 157
43 249 64 659 211 655 234 0 5 -52 33 -114 62 -410 188 -826 479 -1196 834
l-126 121 1 77 c1 120 6 124 67 54 91 -106 568 -531 580 -518 2 2 -2 76 -8
165 -18 225 -8 646 19 850 31 234 84 496 137 676 15 54 17 55 92 94 42 21 80
39 84 40 3 0 0 -21 -8 -47z"/>
<path d="M140 3196 c-1 -29 167 -653 199 -739 6 -15 9 -27 6 -27 -7 0 -108
173 -182 313 -41 78 -71 131 -67 117 19 -73 133 -412 175 -524 27 -71 47 -131
45 -133 -6 -6 -124 167 -191 279 -32 54 -60 96 -62 94 -5 -4 115 -301 177
-436 80 -177 84 -188 68 -170 -34 35 -140 172 -202 259 -36 51 -66 91 -66 88
0 -13 133 -285 205 -417 289 -537 564 -853 870 -1001 202 -98 342 -121 732
-123 145 -1 263 -2 263 -3 0 -2 -48 -80 -106 -174 -58 -94 -102 -174 -98 -178
44 -37 549 -405 555 -404 5 2 545 397 557 408 2 2 -44 80 -102 174 -58 94
-106 171 -106 173 0 2 118 3 263 4 390 2 530 25 732 123 306 148 581 464 870
1001 72 132 205 404 205 417 0 3 -30 -37 -66 -88 -56 -79 -172 -227 -206 -264
-11 -12 0 16 72 175 62 135 182 432 177 436 -2 2 -30 -40 -62 -94 -67 -112
-185 -285 -191 -279 -2 2 18 62 45 133 42 112 156 451 175 524 4 14 -26 -39
-67 -117 -70 -133 -174 -313 -182 -313 -1 0 10 42 26 93 58 182 184 665 177
673 -2 1 -23 -48 -47 -109 -66 -167 -243 -513 -327 -638 -197 -295 -389 -474
-639 -595 -60 -29 -223 -91 -361 -137 -286 -96 -384 -136 -497 -204 -94 -57
-252 -186 -303 -248 -38 -47 -54 -50 -54 -10 0 31 -53 75 -90 75 -37 0 -90
-44 -90 -75 0 -40 -16 -37 -53 8 -47 58 -184 173 -275 232 -115 74 -218 117
-508 215 -148 50 -318 115 -379 144 -250 120 -442 299 -639 595 -82 123 -258
466 -329 641 -25 63 -46 111 -47 106z"/>
</g>
</svg>
